<svg width="48" height="48" viewBox="0 0 48 48" fill="none" xmlns="http://www.w3.org/2000/svg">
<path d="M25.5391 30.1538C31.6561 48.6154 15.3439 48.6154 21.461 30.1538C15.3439 48.6154 2.14702 39.2132 18.1617 27.8032C2.14702 39.2132 -2.89389 24 16.9015 24C-2.89389 24 2.1469 8.78685 18.1617 20.1967C2.14702 8.78673 15.3439 -0.615518 21.461 17.8462C15.3439 -0.615403 31.6563 -0.615403 25.5391 17.8462C31.6561 -0.615403 44.8531 8.78685 28.8384 20.1967C44.8531 8.78673 49.8939 24 30.0985 24C49.8939 24 44.8531 39.2132 28.8384 27.8032C44.8532 39.2132 31.6563 48.6154 25.5391 30.1538Z" fill="#C75969"/>
</svg>
